<?xml version="1.0" encoding="UTF-8" standalone="no"?>
<!-- Created with Inkscape (http://www.inkscape.org/) -->

<svg
   xmlns:dc="http://purl.org/dc/elements/1.1/"
   xmlns:cc="http://creativecommons.org/ns#"
   xmlns:rdf="http://www.w3.org/1999/02/22-rdf-syntax-ns#"
   xmlns:svg="http://www.w3.org/2000/svg"
   xmlns="http://www.w3.org/2000/svg"
   xmlns:sodipodi="http://sodipodi.sourceforge.net/DTD/sodipodi-0.dtd"
   xmlns:inkscape="http://www.inkscape.org/namespaces/inkscape"
   width="100.52064mm"
   height="74.8685mm"
   viewBox="0 0 100.52064 74.8685"
   version="1.1"
   id="svg8"
   inkscape:version="0.92.3 (2405546, 2018-03-11)"
   sodipodi:docname="overview.svg">
  <defs
     id="defs2" />
  <sodipodi:namedview
     id="base"
     pagecolor="#ffffff"
     bordercolor="#666666"
     borderopacity="1.0"
     inkscape:pageopacity="0.0"
     inkscape:pageshadow="2"
     inkscape:zoom="0.35"
     inkscape:cx="-231.46832"
     inkscape:cy="64.340943"
     inkscape:document-units="mm"
     inkscape:current-layer="layer1"
     showgrid="false"
     inkscape:window-width="1920"
     inkscape:window-height="1017"
     inkscape:window-x="-8"
     inkscape:window-y="-8"
     inkscape:window-maximized="1" />
  <metadata
     id="metadata5">
    <rdf:RDF>
      <cc:Work
         rdf:about="">
        <dc:format>image/svg+xml</dc:format>
        <dc:type
           rdf:resource="http://purl.org/dc/dcmitype/StillImage" />
        <dc:title></dc:title>
      </cc:Work>
    </rdf:RDF>
  </metadata>
  <g
     inkscape:label="Layer 1"
     inkscape:groupmode="layer"
     id="layer1"
     transform="translate(-44.23373,-90.988378)">
    <g
       transform="matrix(0.35277777,0,0,-0.35277777,-20.34563,311.29104)"
       inkscape:label="overview"
       id="g823">
      <path
         inkscape:connector-curvature="0"
         id="path825"
         style="fill:#ccc2d9;fill-opacity:1;fill-rule:evenodd;stroke:none"
         d="m 360,606.36 h 45 v 18 h -45 z" />
      <path
         inkscape:connector-curvature="0"
         id="path827"
         style="fill:none;stroke:#000000;stroke-width:0.23999999;stroke-linecap:round;stroke-linejoin:round;stroke-miterlimit:10;stroke-dasharray:none;stroke-opacity:1"
         d="m 360,606.36 h 45 v 18 h -45 z" />
      <text
         id="text831"
         style="font-variant:normal;font-weight:normal;font-size:7.99991989px;font-family:CALIBRI;-inkscape-font-specification:CALIBRI;writing-mode:lr-tb;fill:#000000;fill-opacity:1;fill-rule:nonzero;stroke:none"
         transform="matrix(1,0,0,-1,367.12,612.96)">
        <tspan
           id="tspan829"
           sodipodi:role="line"
           y="0"
           x="0 3.8985119 7.8788881 11.007792 13.687344 15.495984 20.417831 24.249887 26.92944">Test Data</tspan>
      </text>
      <path
         inkscape:connector-curvature="0"
         id="path833"
         style="fill:#c4d6a0;fill-opacity:1;fill-rule:evenodd;stroke:none"
         d="m 184.55,568.11 h 18 v 18 h -18 z" />
      <path
         inkscape:connector-curvature="0"
         id="path835"
         style="fill:none;stroke:#000000;stroke-width:0.23999999;stroke-linecap:round;stroke-linejoin:round;stroke-miterlimit:10;stroke-dasharray:none;stroke-opacity:1"
         d="m 184.55,568.11 h 18 v 18 h -18 z" />
      <path
         inkscape:connector-curvature="0"
         id="path837"
         style="fill:#c4d6a0;fill-opacity:1;fill-rule:evenodd;stroke:none"
         d="m 202.55,568.11 h 18 v 18 h -18 z" />
      <path
         inkscape:connector-curvature="0"
         id="path839"
         style="fill:none;stroke:#000000;stroke-width:0.23999999;stroke-linecap:round;stroke-linejoin:round;stroke-miterlimit:10;stroke-dasharray:none;stroke-opacity:1"
         d="m 202.55,568.11 h 18 v 18 h -18 z" />
      <path
         inkscape:connector-curvature="0"
         id="path841"
         style="fill:#c4d6a0;fill-opacity:1;fill-rule:evenodd;stroke:none"
         d="m 220.55,568.11 h 18 v 18 h -18 z" />
      <path
         inkscape:connector-curvature="0"
         id="path843"
         style="fill:none;stroke:#000000;stroke-width:0.23999999;stroke-linecap:round;stroke-linejoin:round;stroke-miterlimit:10;stroke-dasharray:none;stroke-opacity:1"
         d="m 220.55,568.11 h 18 v 18 h -18 z" />
      <path
         inkscape:connector-curvature="0"
         id="path845"
         style="fill:#c4d6a0;fill-opacity:1;fill-rule:evenodd;stroke:none"
         d="m 238.55,568.11 h 18 v 18 h -18 z" />
      <path
         inkscape:connector-curvature="0"
         id="path847"
         style="fill:none;stroke:#000000;stroke-width:0.23999999;stroke-linecap:round;stroke-linejoin:round;stroke-miterlimit:10;stroke-dasharray:none;stroke-opacity:1"
         d="m 238.55,568.11 h 18 v 18 h -18 z" />
      <path
         inkscape:connector-curvature="0"
         id="path849"
         style="fill:#f9c499;fill-opacity:1;fill-rule:evenodd;stroke:none"
         d="m 256.55,568.11 h 18 v 18 h -18 z" />
      <path
         inkscape:connector-curvature="0"
         id="path851"
         style="fill:none;stroke:#000000;stroke-width:0.23999999;stroke-linecap:round;stroke-linejoin:round;stroke-miterlimit:10;stroke-dasharray:none;stroke-opacity:1"
         d="m 256.55,568.11 h 18 v 18 h -18 z" />
      <path
         inkscape:connector-curvature="0"
         id="path853"
         style="fill:#c4d6a0;fill-opacity:1;fill-rule:evenodd;stroke:none"
         d="m 184.55,532.11 h 18 v 18 h -18 z" />
      <path
         inkscape:connector-curvature="0"
         id="path855"
         style="fill:none;stroke:#000000;stroke-width:0.23999999;stroke-linecap:round;stroke-linejoin:round;stroke-miterlimit:10;stroke-dasharray:none;stroke-opacity:1"
         d="m 184.55,532.11 h 18 v 18 h -18 z" />
      <path
         inkscape:connector-curvature="0"
         id="path857"
         style="fill:#c4d6a0;fill-opacity:1;fill-rule:evenodd;stroke:none"
         d="m 202.55,532.11 h 18 v 18 h -18 z" />
      <path
         inkscape:connector-curvature="0"
         id="path859"
         style="fill:none;stroke:#000000;stroke-width:0.23999999;stroke-linecap:round;stroke-linejoin:round;stroke-miterlimit:10;stroke-dasharray:none;stroke-opacity:1"
         d="m 202.55,532.11 h 18 v 18 h -18 z" />
      <path
         inkscape:connector-curvature="0"
         id="path861"
         style="fill:#c4d6a0;fill-opacity:1;fill-rule:evenodd;stroke:none"
         d="m 220.55,532.11 h 18 v 18 h -18 z" />
      <path
         inkscape:connector-curvature="0"
         id="path863"
         style="fill:none;stroke:#000000;stroke-width:0.23999999;stroke-linecap:round;stroke-linejoin:round;stroke-miterlimit:10;stroke-dasharray:none;stroke-opacity:1"
         d="m 220.55,532.11 h 18 v 18 h -18 z" />
      <path
         inkscape:connector-curvature="0"
         id="path865"
         style="fill:#f9c499;fill-opacity:1;fill-rule:evenodd;stroke:none"
         d="m 238.55,532.11 h 18 v 18 h -18 z" />
      <path
         inkscape:connector-curvature="0"
         id="path867"
         style="fill:none;stroke:#000000;stroke-width:0.23999999;stroke-linecap:round;stroke-linejoin:round;stroke-miterlimit:10;stroke-dasharray:none;stroke-opacity:1"
         d="m 238.55,532.11 h 18 v 18 h -18 z" />
      <path
         inkscape:connector-curvature="0"
         id="path869"
         style="fill:#c4d6a0;fill-opacity:1;fill-rule:evenodd;stroke:none"
         d="m 256.55,532.11 h 18 v 18 h -18 z" />
      <path
         inkscape:connector-curvature="0"
         id="path871"
         style="fill:none;stroke:#000000;stroke-width:0.23999999;stroke-linecap:round;stroke-linejoin:round;stroke-miterlimit:10;stroke-dasharray:none;stroke-opacity:1"
         d="m 256.55,532.11 h 18 v 18 h -18 z" />
      <path
         inkscape:connector-curvature="0"
         id="path873"
         style="fill:#c4d6a0;fill-opacity:1;fill-rule:evenodd;stroke:none"
         d="m 184.55,496.11 h 18 v 18 h -18 z" />
      <path
         inkscape:connector-curvature="0"
         id="path875"
         style="fill:none;stroke:#000000;stroke-width:0.23999999;stroke-linecap:round;stroke-linejoin:round;stroke-miterlimit:10;stroke-dasharray:none;stroke-opacity:1"
         d="m 184.55,496.11 h 18 v 18 h -18 z" />
      <path
         inkscape:connector-curvature="0"
         id="path877"
         style="fill:#c4d6a0;fill-opacity:1;fill-rule:evenodd;stroke:none"
         d="m 202.55,496.11 h 18 v 18 h -18 z" />
      <path
         inkscape:connector-curvature="0"
         id="path879"
         style="fill:none;stroke:#000000;stroke-width:0.23999999;stroke-linecap:round;stroke-linejoin:round;stroke-miterlimit:10;stroke-dasharray:none;stroke-opacity:1"
         d="m 202.55,496.11 h 18 v 18 h -18 z" />
      <path
         inkscape:connector-curvature="0"
         id="path881"
         style="fill:#f9c499;fill-opacity:1;fill-rule:evenodd;stroke:none"
         d="m 220.55,496.11 h 18 v 18 h -18 z" />
      <path
         inkscape:connector-curvature="0"
         id="path883"
         style="fill:none;stroke:#000000;stroke-width:0.23999999;stroke-linecap:round;stroke-linejoin:round;stroke-miterlimit:10;stroke-dasharray:none;stroke-opacity:1"
         d="m 220.55,496.11 h 18 v 18 h -18 z" />
      <path
         inkscape:connector-curvature="0"
         id="path885"
         style="fill:#c4d6a0;fill-opacity:1;fill-rule:evenodd;stroke:none"
         d="m 238.55,496.11 h 18 v 18 h -18 z" />
      <path
         inkscape:connector-curvature="0"
         id="path887"
         style="fill:none;stroke:#000000;stroke-width:0.23999999;stroke-linecap:round;stroke-linejoin:round;stroke-miterlimit:10;stroke-dasharray:none;stroke-opacity:1"
         d="m 238.55,496.11 h 18 v 18 h -18 z" />
      <path
         inkscape:connector-curvature="0"
         id="path889"
         style="fill:#c4d6a0;fill-opacity:1;fill-rule:evenodd;stroke:none"
         d="m 256.55,496.11 h 18 v 18 h -18 z" />
      <path
         inkscape:connector-curvature="0"
         id="path891"
         style="fill:none;stroke:#000000;stroke-width:0.23999999;stroke-linecap:round;stroke-linejoin:round;stroke-miterlimit:10;stroke-dasharray:none;stroke-opacity:1"
         d="m 256.55,496.11 h 18 v 18 h -18 z" />
      <path
         inkscape:connector-curvature="0"
         id="path893"
         style="fill:#c4d6a0;fill-opacity:1;fill-rule:evenodd;stroke:none"
         d="m 184.55,460.11 h 18 v 18 h -18 z" />
      <path
         inkscape:connector-curvature="0"
         id="path895"
         style="fill:none;stroke:#000000;stroke-width:0.23999999;stroke-linecap:round;stroke-linejoin:round;stroke-miterlimit:10;stroke-dasharray:none;stroke-opacity:1"
         d="m 184.55,460.11 h 18 v 18 h -18 z" />
      <path
         inkscape:connector-curvature="0"
         id="path897"
         style="fill:#f9c499;fill-opacity:1;fill-rule:evenodd;stroke:none"
         d="m 202.55,460.11 h 18 v 18 h -18 z" />
      <path
         inkscape:connector-curvature="0"
         id="path899"
         style="fill:none;stroke:#000000;stroke-width:0.23999999;stroke-linecap:round;stroke-linejoin:round;stroke-miterlimit:10;stroke-dasharray:none;stroke-opacity:1"
         d="m 202.55,460.11 h 18 v 18 h -18 z" />
      <path
         inkscape:connector-curvature="0"
         id="path901"
         style="fill:#c4d6a0;fill-opacity:1;fill-rule:evenodd;stroke:none"
         d="m 220.55,460.11 h 18 v 18 h -18 z" />
      <path
         inkscape:connector-curvature="0"
         id="path903"
         style="fill:none;stroke:#000000;stroke-width:0.23999999;stroke-linecap:round;stroke-linejoin:round;stroke-miterlimit:10;stroke-dasharray:none;stroke-opacity:1"
         d="m 220.55,460.11 h 18 v 18 h -18 z" />
      <path
         inkscape:connector-curvature="0"
         id="path905"
         style="fill:#c4d6a0;fill-opacity:1;fill-rule:evenodd;stroke:none"
         d="m 238.55,460.11 h 18 v 18 h -18 z" />
      <path
         inkscape:connector-curvature="0"
         id="path907"
         style="fill:none;stroke:#000000;stroke-width:0.23999999;stroke-linecap:round;stroke-linejoin:round;stroke-miterlimit:10;stroke-dasharray:none;stroke-opacity:1"
         d="m 238.55,460.11 h 18 v 18 h -18 z" />
      <path
         inkscape:connector-curvature="0"
         id="path909"
         style="fill:#c4d6a0;fill-opacity:1;fill-rule:evenodd;stroke:none"
         d="m 256.55,460.11 h 18 v 18 h -18 z" />
      <path
         inkscape:connector-curvature="0"
         id="path911"
         style="fill:none;stroke:#000000;stroke-width:0.23999999;stroke-linecap:round;stroke-linejoin:round;stroke-miterlimit:10;stroke-dasharray:none;stroke-opacity:1"
         d="m 256.55,460.11 h 18 v 18 h -18 z" />
      <path
         inkscape:connector-curvature="0"
         id="path913"
         style="fill:#f9c499;fill-opacity:1;fill-rule:evenodd;stroke:none"
         d="m 184.55,424.11 h 18 v 18 h -18 z" />
      <path
         inkscape:connector-curvature="0"
         id="path915"
         style="fill:none;stroke:#000000;stroke-width:0.23999999;stroke-linecap:round;stroke-linejoin:round;stroke-miterlimit:10;stroke-dasharray:none;stroke-opacity:1"
         d="m 184.55,424.11 h 18 v 18 h -18 z" />
      <path
         inkscape:connector-curvature="0"
         id="path917"
         style="fill:#c4d6a0;fill-opacity:1;fill-rule:evenodd;stroke:none"
         d="m 202.55,424.11 h 18 v 18 h -18 z" />
      <path
         inkscape:connector-curvature="0"
         id="path919"
         style="fill:none;stroke:#000000;stroke-width:0.23999999;stroke-linecap:round;stroke-linejoin:round;stroke-miterlimit:10;stroke-dasharray:none;stroke-opacity:1"
         d="m 202.55,424.11 h 18 v 18 h -18 z" />
      <path
         inkscape:connector-curvature="0"
         id="path921"
         style="fill:#c4d6a0;fill-opacity:1;fill-rule:evenodd;stroke:none"
         d="m 220.55,424.11 h 18 v 18 h -18 z" />
      <path
         inkscape:connector-curvature="0"
         id="path923"
         style="fill:none;stroke:#000000;stroke-width:0.23999999;stroke-linecap:round;stroke-linejoin:round;stroke-miterlimit:10;stroke-dasharray:none;stroke-opacity:1"
         d="m 220.55,424.11 h 18 v 18 h -18 z" />
      <path
         inkscape:connector-curvature="0"
         id="path925"
         style="fill:#c4d6a0;fill-opacity:1;fill-rule:evenodd;stroke:none"
         d="m 238.55,424.11 h 18 v 18 h -18 z" />
      <path
         inkscape:connector-curvature="0"
         id="path927"
         style="fill:none;stroke:#000000;stroke-width:0.23999999;stroke-linecap:round;stroke-linejoin:round;stroke-miterlimit:10;stroke-dasharray:none;stroke-opacity:1"
         d="m 238.55,424.11 h 18 v 18 h -18 z" />
      <path
         inkscape:connector-curvature="0"
         id="path929"
         style="fill:#c4d6a0;fill-opacity:1;fill-rule:evenodd;stroke:none"
         d="m 256.55,424.11 h 18 v 18 h -18 z" />
      <path
         inkscape:connector-curvature="0"
         id="path931"
         style="fill:none;stroke:#000000;stroke-width:0.23999999;stroke-linecap:round;stroke-linejoin:round;stroke-miterlimit:10;stroke-dasharray:none;stroke-opacity:1"
         d="m 256.55,424.11 h 18 v 18 h -18 z" />
      <path
         inkscape:connector-curvature="0"
         id="path933"
         style="fill:none;stroke:#50632a;stroke-width:0.75;stroke-linecap:round;stroke-linejoin:round;stroke-miterlimit:10;stroke-dasharray:none;stroke-opacity:1"
         d="m 184.55,566.11 v -4.12 h 71.44 v 3.75" />
      <path
         inkscape:connector-curvature="0"
         id="path935"
         style="fill:none;stroke:#ea700d;stroke-width:0.75;stroke-linecap:round;stroke-linejoin:round;stroke-miterlimit:10;stroke-dasharray:none;stroke-opacity:1"
         d="m 257.11,565.74 v -3.75 h 17.44 v 3.84" />
      <text
         id="text939"
         style="font-variant:normal;font-weight:normal;font-size:5.99990416px;font-family:CALIBRI;-inkscape-font-specification:CALIBRI;writing-mode:lr-tb;fill:#000000;fill-opacity:1;fill-rule:nonzero;stroke:none"
         transform="matrix(1,0,0,-1,214.2,556.31)">
        <tspan
           id="tspan937"
           sodipodi:role="line"
           y="0"
           x="0 2.9237039 5.0155201 7.889544 9.2664003">Train</tspan>
      </text>
      <text
         id="text943"
         style="font-variant:normal;font-weight:normal;font-size:5.99990416px;font-family:CALIBRI;-inkscape-font-specification:CALIBRI;writing-mode:lr-tb;fill:#000000;fill-opacity:1;fill-rule:nonzero;stroke:none"
         transform="matrix(1,0,0,-1,256.04,556.31)">
        <tspan
           id="tspan941"
           sodipodi:role="line"
           y="0"
           x="0 3.404088 6.2781119 7.6549678 9.0318241 12.184056 15.05808 17.067743">Validate</tspan>
      </text>
      <path
         inkscape:connector-curvature="0"
         id="path945"
         style="fill:none;stroke:#50632a;stroke-width:0.75;stroke-linecap:round;stroke-linejoin:round;stroke-miterlimit:10;stroke-dasharray:none;stroke-opacity:1"
         d="m 184.55,530.36 v -4.12 h 53.44 v 3.75" />
      <path
         inkscape:connector-curvature="0"
         id="path947"
         style="fill:none;stroke:#ea700d;stroke-width:0.75;stroke-linecap:round;stroke-linejoin:round;stroke-miterlimit:10;stroke-dasharray:none;stroke-opacity:1"
         d="m 239.11,529.99 v -3.75 h 16.88 v 3.84" />
      <text
         id="text951"
         style="font-variant:normal;font-weight:normal;font-size:5.99990416px;font-family:CALIBRI;-inkscape-font-specification:CALIBRI;writing-mode:lr-tb;fill:#000000;fill-opacity:1;fill-rule:nonzero;stroke:none"
         transform="matrix(1,0,0,-1,204.88,520.31)">
        <tspan
           id="tspan949"
           sodipodi:role="line"
           y="0"
           x="0 2.9237039 5.0155201 7.889544 9.2664003">Train</tspan>
      </text>
      <text
         id="text955"
         style="font-variant:normal;font-weight:normal;font-size:5.99990416px;font-family:CALIBRI;-inkscape-font-specification:CALIBRI;writing-mode:lr-tb;fill:#000000;fill-opacity:1;fill-rule:nonzero;stroke:none"
         transform="matrix(1,0,0,-1,237.52,520.31)">
        <tspan
           id="tspan953"
           sodipodi:role="line"
           y="0"
           x="0 3.404088 6.2781119 7.6549678 9.0318241 12.184056 15.05808 17.067743">Validate</tspan>
      </text>
      <path
         inkscape:connector-curvature="0"
         id="path957"
         style="fill:none;stroke:#50632a;stroke-width:0.75;stroke-linecap:round;stroke-linejoin:round;stroke-miterlimit:10;stroke-dasharray:none;stroke-opacity:1"
         d="m 257.11,530.11 v -3.87 h 17.44 v 3.52" />
      <text
         id="text961"
         style="font-variant:normal;font-weight:normal;font-size:5.99990416px;font-family:CALIBRI;-inkscape-font-specification:CALIBRI;writing-mode:lr-tb;fill:#000000;fill-opacity:1;fill-rule:nonzero;stroke:none"
         transform="matrix(1,0,0,-1,259.34,520.31)">
        <tspan
           id="tspan959"
           sodipodi:role="line"
           y="0"
           x="0 2.9237039 5.0155201 7.889544 9.2664003">Train</tspan>
      </text>
      <path
         inkscape:connector-curvature="0"
         id="path963"
         style="fill:none;stroke:#50632a;stroke-width:0.75;stroke-linecap:round;stroke-linejoin:round;stroke-miterlimit:10;stroke-dasharray:none;stroke-opacity:1"
         d="m 184.55,494.36 v -4.12 h 35.44 v 3.75" />
      <path
         inkscape:connector-curvature="0"
         id="path965"
         style="fill:none;stroke:#ea700d;stroke-width:0.75;stroke-linecap:round;stroke-linejoin:round;stroke-miterlimit:10;stroke-dasharray:none;stroke-opacity:1"
         d="m 221.11,493.99 v -3.75 h 16.88 v 3.84" />
      <text
         id="text969"
         style="font-variant:normal;font-weight:normal;font-size:5.99990416px;font-family:CALIBRI;-inkscape-font-specification:CALIBRI;writing-mode:lr-tb;fill:#000000;fill-opacity:1;fill-rule:nonzero;stroke:none"
         transform="matrix(1,0,0,-1,196.34,484.31)">
        <tspan
           id="tspan967"
           sodipodi:role="line"
           y="0"
           x="0 2.9237039 5.0155201 7.889544 9.2664003">Train</tspan>
      </text>
      <text
         id="text973"
         style="font-variant:normal;font-weight:normal;font-size:5.99990416px;font-family:CALIBRI;-inkscape-font-specification:CALIBRI;writing-mode:lr-tb;fill:#000000;fill-opacity:1;fill-rule:nonzero;stroke:none"
         transform="matrix(1,0,0,-1,219.52,484.31)">
        <tspan
           id="tspan971"
           sodipodi:role="line"
           y="0"
           x="0 3.404088 6.2781119 7.6549678 9.0318241 12.184056 15.05808 17.067743">Validate</tspan>
      </text>
      <path
         inkscape:connector-curvature="0"
         id="path975"
         style="fill:none;stroke:#50632a;stroke-width:0.75;stroke-linecap:round;stroke-linejoin:round;stroke-miterlimit:10;stroke-dasharray:none;stroke-opacity:1"
         d="m 239.11,494.11 v -3.87 h 35.44 v 3.52" />
      <text
         id="text979"
         style="font-variant:normal;font-weight:normal;font-size:5.99990416px;font-family:CALIBRI;-inkscape-font-specification:CALIBRI;writing-mode:lr-tb;fill:#000000;fill-opacity:1;fill-rule:nonzero;stroke:none"
         transform="matrix(1,0,0,-1,250.34,484.31)">
        <tspan
           id="tspan977"
           sodipodi:role="line"
           y="0"
           x="0 2.9237039 5.0155201 7.889544 9.2664003">Train</tspan>
      </text>
      <path
         inkscape:connector-curvature="0"
         id="path981"
         style="fill:none;stroke:#50632a;stroke-width:0.75;stroke-linecap:round;stroke-linejoin:round;stroke-miterlimit:10;stroke-dasharray:none;stroke-opacity:1"
         d="m 184.55,458.36 v -4.12 h 17.44 v 3.75" />
      <path
         inkscape:connector-curvature="0"
         id="path983"
         style="fill:none;stroke:#ea700d;stroke-width:0.75;stroke-linecap:round;stroke-linejoin:round;stroke-miterlimit:10;stroke-dasharray:none;stroke-opacity:1"
         d="m 203.11,457.99 v -3.75 h 16.88 v 3.84" />
      <text
         id="text987"
         style="font-variant:normal;font-weight:normal;font-size:5.99990416px;font-family:CALIBRI;-inkscape-font-specification:CALIBRI;writing-mode:lr-tb;fill:#000000;fill-opacity:1;fill-rule:nonzero;stroke:none"
         transform="matrix(1,0,0,-1,186.88,448.31)">
        <tspan
           id="tspan985"
           sodipodi:role="line"
           y="0"
           x="0 2.9237039 5.0155201 7.889544 9.2664003">Train</tspan>
      </text>
      <text
         id="text991"
         style="font-variant:normal;font-weight:normal;font-size:5.99990416px;font-family:CALIBRI;-inkscape-font-specification:CALIBRI;writing-mode:lr-tb;fill:#000000;fill-opacity:1;fill-rule:nonzero;stroke:none"
         transform="matrix(1,0,0,-1,201.52,448.31)">
        <tspan
           id="tspan989"
           sodipodi:role="line"
           y="0"
           x="0 3.404088 6.2781119 7.6549678 9.0318241 12.184056 15.05808 17.067743">Validate</tspan>
      </text>
      <path
         inkscape:connector-curvature="0"
         id="path993"
         style="fill:none;stroke:#50632a;stroke-width:0.75;stroke-linecap:round;stroke-linejoin:round;stroke-miterlimit:10;stroke-dasharray:none;stroke-opacity:1"
         d="m 221.11,458.11 v -3.87 h 53.44 v 3.52" />
      <text
         id="text997"
         style="font-variant:normal;font-weight:normal;font-size:5.99990416px;font-family:CALIBRI;-inkscape-font-specification:CALIBRI;writing-mode:lr-tb;fill:#000000;fill-opacity:1;fill-rule:nonzero;stroke:none"
         transform="matrix(1,0,0,-1,241.34,448.31)">
        <tspan
           id="tspan995"
           sodipodi:role="line"
           y="0"
           x="0 2.9237039 5.0155201 7.889544 9.2664003">Train</tspan>
      </text>
      <path
         inkscape:connector-curvature="0"
         id="path999"
         style="fill:none;stroke:#50632a;stroke-width:0.75;stroke-linecap:round;stroke-linejoin:round;stroke-miterlimit:10;stroke-dasharray:none;stroke-opacity:1"
         d="m 203.11,421.86 v -3.87 h 71.16 v 3.52" />
      <path
         inkscape:connector-curvature="0"
         id="path1001"
         style="fill:none;stroke:#ea700d;stroke-width:0.75;stroke-linecap:round;stroke-linejoin:round;stroke-miterlimit:10;stroke-dasharray:none;stroke-opacity:1"
         d="m 184.55,421.74 v -3.75 h 17.44 v 3.84" />
      <text
         id="text1005"
         style="font-variant:normal;font-weight:normal;font-size:5.99990416px;font-family:CALIBRI;-inkscape-font-specification:CALIBRI;writing-mode:lr-tb;fill:#000000;fill-opacity:1;fill-rule:nonzero;stroke:none"
         transform="matrix(1,0,0,-1,232.48,412.31)">
        <tspan
           id="tspan1003"
           sodipodi:role="line"
           y="0"
           x="0 2.9237039 5.0155201 7.889544 9.2664003">Train</tspan>
      </text>
      <text
         id="text1009"
         style="font-variant:normal;font-weight:normal;font-size:5.99990416px;font-family:CALIBRI;-inkscape-font-specification:CALIBRI;writing-mode:lr-tb;fill:#000000;fill-opacity:1;fill-rule:nonzero;stroke:none"
         transform="matrix(1,0,0,-1,182.96,412.31)">
        <tspan
           id="tspan1007"
           sodipodi:role="line"
           y="0"
           x="0 3.404088 6.2781119 7.6549678 9.0318241 12.184056 15.05808 17.067743">Validate</tspan>
      </text>
      <path
         inkscape:connector-curvature="0"
         id="path1011"
         style="fill:#c4d6a0;fill-opacity:1;fill-rule:evenodd;stroke:none"
         d="m 184.55,606.36 h 90 v 18 h -90 z" />
      <path
         inkscape:connector-curvature="0"
         id="path1013"
         style="fill:none;stroke:#000000;stroke-width:0.23999999;stroke-linecap:round;stroke-linejoin:round;stroke-miterlimit:10;stroke-dasharray:none;stroke-opacity:1"
         d="m 184.55,606.36 h 90 v 18 h -90 z" />
      <text
         id="text1017"
         style="font-variant:normal;font-weight:normal;font-size:7.99991989px;font-family:CALIBRI;-inkscape-font-specification:CALIBRI;writing-mode:lr-tb;fill:#000000;fill-opacity:1;fill-rule:nonzero;stroke:none"
         transform="matrix(1,0,0,-1,203.83,612.96)">
        <tspan
           id="tspan1015"
           sodipodi:role="line"
           y="0"
           x="0 3.8985119 6.6876478 10.519704 12.355488 16.558559">Train</tspan>
      </text>
      <text
         id="text1021"
         style="font-variant:normal;font-weight:normal;font-size:7.99991989px;font-family:CALIBRI;-inkscape-font-specification:CALIBRI;writing-mode:lr-tb;fill:#000000;fill-opacity:1;fill-rule:nonzero;stroke:none"
         transform="matrix(1,0,0,-1,222.2,612.96)">
        <tspan
           id="tspan1019"
           y="0"
           x="0">–</tspan>
      </text>
      <text
         id="text1025"
         style="font-variant:normal;font-weight:normal;font-size:7.99991989px;font-family:CALIBRI;-inkscape-font-specification:CALIBRI;writing-mode:lr-tb;fill:#000000;fill-opacity:1;fill-rule:nonzero;stroke:none"
         transform="matrix(1,0,0,-1,227.99,612.96)">
        <tspan
           id="tspan1023"
           sodipodi:role="line"
           y="0"
           x="0 4.5390239 8.3710804 10.206864 12.015504 16.937351 20.769407 23.448959">Val Data</tspan>
      </text>
      <path
         inkscape:connector-curvature="0"
         id="path1027"
         style="fill:#e8eef7;fill-opacity:1;fill-rule:evenodd;stroke:none"
         d="m 301.5,577.11 -4.5,4.5 v -2.97 h -13.5 v -3.06 H 297 v -2.97 z" />
      <path
         inkscape:connector-curvature="0"
         id="path1029"
         style="fill:none;stroke:#000000;stroke-width:0.23999999;stroke-linecap:round;stroke-linejoin:round;stroke-miterlimit:10;stroke-dasharray:none;stroke-opacity:1"
         d="m 301.5,577.11 -4.5,4.5 v -2.97 h -13.5 v -3.06 H 297 v -2.97 z" />
      <path
         inkscape:connector-curvature="0"
         id="path1031"
         style="fill:#e8eef7;fill-opacity:1;fill-rule:evenodd;stroke:none"
         d="m 301.5,541.11 -4.5,4.5 v -2.97 h -13.5 v -3.06 H 297 v -2.97 z" />
      <path
         inkscape:connector-curvature="0"
         id="path1033"
         style="fill:none;stroke:#000000;stroke-width:0.23999999;stroke-linecap:round;stroke-linejoin:round;stroke-miterlimit:10;stroke-dasharray:none;stroke-opacity:1"
         d="m 301.5,541.11 -4.5,4.5 v -2.97 h -13.5 v -3.06 H 297 v -2.97 z" />
      <path
         inkscape:connector-curvature="0"
         id="path1035"
         style="fill:#e8eef7;fill-opacity:1;fill-rule:evenodd;stroke:none"
         d="m 301.5,505.11 -4.5,4.5 v -2.97 h -13.5 v -3.06 H 297 v -2.97 z" />
      <path
         inkscape:connector-curvature="0"
         id="path1037"
         style="fill:none;stroke:#000000;stroke-width:0.23999999;stroke-linecap:round;stroke-linejoin:round;stroke-miterlimit:10;stroke-dasharray:none;stroke-opacity:1"
         d="m 301.5,505.11 -4.5,4.5 v -2.97 h -13.5 v -3.06 H 297 v -2.97 z" />
      <path
         inkscape:connector-curvature="0"
         id="path1039"
         style="fill:#e8eef7;fill-opacity:1;fill-rule:evenodd;stroke:none"
         d="m 301.5,469.11 -4.5,4.5 v -2.97 h -13.5 v -3.06 H 297 v -2.97 z" />
      <path
         inkscape:connector-curvature="0"
         id="path1041"
         style="fill:none;stroke:#000000;stroke-width:0.23999999;stroke-linecap:round;stroke-linejoin:round;stroke-miterlimit:10;stroke-dasharray:none;stroke-opacity:1"
         d="m 301.5,469.11 -4.5,4.5 v -2.97 h -13.5 v -3.06 H 297 v -2.97 z" />
      <path
         inkscape:connector-curvature="0"
         id="path1043"
         style="fill:#c6d8f0;fill-opacity:1;fill-rule:evenodd;stroke:none"
         d="m 315,568.11 h 27 c 2.49,0 4.5,2.01 4.5,4.5 0,0 0,0 0,0 v 9 c 0,2.49 -2.01,4.5 -4.5,4.5 h -27 c -2.49,0 -4.5,-2.01 -4.5,-4.5 v -9 c 0,-2.48 2.01,-4.5 4.5,-4.5 z" />
      <path
         inkscape:connector-curvature="0"
         id="path1045"
         style="fill:none;stroke:#000000;stroke-width:0.23999999;stroke-linecap:round;stroke-linejoin:round;stroke-miterlimit:10;stroke-dasharray:none;stroke-opacity:1"
         d="m 315,568.11 h 27 c 2.49,0 4.5,2.01 4.5,4.5 0,0 0,0 0,0 v 9 c 0,2.49 -2.01,4.5 -4.5,4.5 h -27 c -2.49,0 -4.5,-2.01 -4.5,-4.5 v -9 c 0,-2.48 2.01,-4.5 4.5,-4.5 z" />
      <text
         id="text1049"
         style="font-variant:normal;font-weight:normal;font-size:7.99991989px;font-family:CALIBRI;-inkscape-font-specification:CALIBRI;writing-mode:lr-tb;fill:#000000;fill-opacity:1;fill-rule:nonzero;stroke:none"
         transform="matrix(1,0,0,-1,315.03,574.71)">
        <tspan
           id="tspan1047"
           sodipodi:role="line"
           y="0"
           x="0 6.8397841 11.058552 15.261624 19.242001 21.077784">Model</tspan>
      </text>
      <text
         id="text1053"
         style="font-variant:normal;font-weight:normal;font-size:7.99991989px;font-family:CALIBRI;-inkscape-font-specification:CALIBRI;writing-mode:lr-tb;fill:#000000;fill-opacity:1;fill-rule:nonzero;stroke:none"
         transform="matrix(1,0,0,-1,337.92,574.71)">
        <tspan
           id="tspan1051"
           y="0"
           x="0">1</tspan>
      </text>
      <path
         inkscape:connector-curvature="0"
         id="path1055"
         style="fill:#c6d8f0;fill-opacity:1;fill-rule:evenodd;stroke:none"
         d="m 315,532.11 h 27 c 2.49,0 4.5,2.01 4.5,4.5 0,0 0,0 0,0 v 9 c 0,2.49 -2.01,4.5 -4.5,4.5 h -27 c -2.49,0 -4.5,-2.01 -4.5,-4.5 v -9 c 0,-2.48 2.01,-4.5 4.5,-4.5 z" />
      <path
         inkscape:connector-curvature="0"
         id="path1057"
         style="fill:none;stroke:#000000;stroke-width:0.23999999;stroke-linecap:round;stroke-linejoin:round;stroke-miterlimit:10;stroke-dasharray:none;stroke-opacity:1"
         d="m 315,532.11 h 27 c 2.49,0 4.5,2.01 4.5,4.5 0,0 0,0 0,0 v 9 c 0,2.49 -2.01,4.5 -4.5,4.5 h -27 c -2.49,0 -4.5,-2.01 -4.5,-4.5 v -9 c 0,-2.48 2.01,-4.5 4.5,-4.5 z" />
      <text
         id="text1061"
         style="font-variant:normal;font-weight:normal;font-size:7.99991989px;font-family:CALIBRI;-inkscape-font-specification:CALIBRI;writing-mode:lr-tb;fill:#000000;fill-opacity:1;fill-rule:nonzero;stroke:none"
         transform="matrix(1,0,0,-1,315.03,538.71)">
        <tspan
           id="tspan1059"
           sodipodi:role="line"
           y="0"
           x="0 6.8397841 11.058552 15.261624 19.242001 21.077784">Model</tspan>
      </text>
      <text
         id="text1065"
         style="font-variant:normal;font-weight:normal;font-size:7.99991989px;font-family:CALIBRI;-inkscape-font-specification:CALIBRI;writing-mode:lr-tb;fill:#000000;fill-opacity:1;fill-rule:nonzero;stroke:none"
         transform="matrix(1,0,0,-1,337.92,538.71)">
        <tspan
           id="tspan1063"
           y="0"
           x="0">2</tspan>
      </text>
      <path
         inkscape:connector-curvature="0"
         id="path1067"
         style="fill:#c6d8f0;fill-opacity:1;fill-rule:evenodd;stroke:none"
         d="m 315,496.11 h 27 c 2.49,0 4.5,2.01 4.5,4.5 0,0 0,0 0,0 v 9 c 0,2.49 -2.01,4.5 -4.5,4.5 h -27 c -2.49,0 -4.5,-2.01 -4.5,-4.5 v -9 c 0,-2.49 2.01,-4.5 4.5,-4.5 z" />
      <path
         inkscape:connector-curvature="0"
         id="path1069"
         style="fill:none;stroke:#000000;stroke-width:0.23999999;stroke-linecap:round;stroke-linejoin:round;stroke-miterlimit:10;stroke-dasharray:none;stroke-opacity:1"
         d="m 315,496.11 h 27 c 2.49,0 4.5,2.01 4.5,4.5 0,0 0,0 0,0 v 9 c 0,2.49 -2.01,4.5 -4.5,4.5 h -27 c -2.49,0 -4.5,-2.01 -4.5,-4.5 v -9 c 0,-2.49 2.01,-4.5 4.5,-4.5 z" />
      <text
         id="text1073"
         style="font-variant:normal;font-weight:normal;font-size:7.99991989px;font-family:CALIBRI;-inkscape-font-specification:CALIBRI;writing-mode:lr-tb;fill:#000000;fill-opacity:1;fill-rule:nonzero;stroke:none"
         transform="matrix(1,0,0,-1,315.03,502.71)">
        <tspan
           id="tspan1071"
           sodipodi:role="line"
           y="0"
           x="0 6.8397841 11.058552 15.261624 19.242001 21.077784">Model</tspan>
      </text>
      <text
         id="text1077"
         style="font-variant:normal;font-weight:normal;font-size:7.99991989px;font-family:CALIBRI;-inkscape-font-specification:CALIBRI;writing-mode:lr-tb;fill:#000000;fill-opacity:1;fill-rule:nonzero;stroke:none"
         transform="matrix(1,0,0,-1,337.92,502.71)">
        <tspan
           id="tspan1075"
           y="0"
           x="0">3</tspan>
      </text>
      <path
         inkscape:connector-curvature="0"
         id="path1079"
         style="fill:#c6d8f0;fill-opacity:1;fill-rule:evenodd;stroke:none"
         d="m 315,460.11 h 27 c 2.49,0 4.5,2.01 4.5,4.5 0,0 0,0 0,0 v 9 c 0,2.49 -2.01,4.5 -4.5,4.5 h -27 c -2.49,0 -4.5,-2.01 -4.5,-4.5 v -9 c 0,-2.49 2.01,-4.5 4.5,-4.5 z" />
      <path
         inkscape:connector-curvature="0"
         id="path1081"
         style="fill:none;stroke:#000000;stroke-width:0.23999999;stroke-linecap:round;stroke-linejoin:round;stroke-miterlimit:10;stroke-dasharray:none;stroke-opacity:1"
         d="m 315,460.11 h 27 c 2.49,0 4.5,2.01 4.5,4.5 0,0 0,0 0,0 v 9 c 0,2.49 -2.01,4.5 -4.5,4.5 h -27 c -2.49,0 -4.5,-2.01 -4.5,-4.5 v -9 c 0,-2.49 2.01,-4.5 4.5,-4.5 z" />
      <text
         id="text1085"
         style="font-variant:normal;font-weight:normal;font-size:7.99991989px;font-family:CALIBRI;-inkscape-font-specification:CALIBRI;writing-mode:lr-tb;fill:#000000;fill-opacity:1;fill-rule:nonzero;stroke:none"
         transform="matrix(1,0,0,-1,315.03,466.71)">
        <tspan
           id="tspan1083"
           sodipodi:role="line"
           y="0"
           x="0 6.8397841 11.058552 15.261624 19.242001 21.077784">Model</tspan>
      </text>
      <text
         id="text1089"
         style="font-variant:normal;font-weight:normal;font-size:7.99991989px;font-family:CALIBRI;-inkscape-font-specification:CALIBRI;writing-mode:lr-tb;fill:#000000;fill-opacity:1;fill-rule:nonzero;stroke:none"
         transform="matrix(1,0,0,-1,337.92,466.71)">
        <tspan
           id="tspan1087"
           y="0"
           x="0">4</tspan>
      </text>
      <path
         inkscape:connector-curvature="0"
         id="path1091"
         style="fill:#c6d8f0;fill-opacity:1;fill-rule:evenodd;stroke:none"
         d="m 315,424.11 h 27 c 2.49,0 4.5,2.01 4.5,4.5 0,0 0,0 0,0 v 9 c 0,2.49 -2.01,4.5 -4.5,4.5 h -27 c -2.49,0 -4.5,-2.01 -4.5,-4.5 v -9 c 0,-2.49 2.01,-4.5 4.5,-4.5 z" />
      <path
         inkscape:connector-curvature="0"
         id="path1093"
         style="fill:none;stroke:#000000;stroke-width:0.23999999;stroke-linecap:round;stroke-linejoin:round;stroke-miterlimit:10;stroke-dasharray:none;stroke-opacity:1"
         d="m 315,424.11 h 27 c 2.49,0 4.5,2.01 4.5,4.5 0,0 0,0 0,0 v 9 c 0,2.49 -2.01,4.5 -4.5,4.5 h -27 c -2.49,0 -4.5,-2.01 -4.5,-4.5 v -9 c 0,-2.49 2.01,-4.5 4.5,-4.5 z" />
      <text
         id="text1097"
         style="font-variant:normal;font-weight:normal;font-size:7.99991989px;font-family:CALIBRI;-inkscape-font-specification:CALIBRI;writing-mode:lr-tb;fill:#000000;fill-opacity:1;fill-rule:nonzero;stroke:none"
         transform="matrix(1,0,0,-1,315.03,430.71)">
        <tspan
           id="tspan1095"
           sodipodi:role="line"
           y="0"
           x="0 6.8397841 11.058552 15.261624 19.242001 21.077784">Model</tspan>
      </text>
      <text
         id="text1101"
         style="font-variant:normal;font-weight:normal;font-size:7.99991989px;font-family:CALIBRI;-inkscape-font-specification:CALIBRI;writing-mode:lr-tb;fill:#000000;fill-opacity:1;fill-rule:nonzero;stroke:none"
         transform="matrix(1,0,0,-1,337.92,430.71)">
        <tspan
           id="tspan1099"
           y="0"
           x="0">5</tspan>
      </text>
      <path
         inkscape:connector-curvature="0"
         id="path1103"
         style="fill:#e8eef7;fill-opacity:1;fill-rule:evenodd;stroke:none"
         d="m 301.5,433.11 -4.5,4.5 v -2.97 h -13.5 v -3.06 H 297 v -2.97 z" />
      <path
         inkscape:connector-curvature="0"
         id="path1105"
         style="fill:none;stroke:#000000;stroke-width:0.23999999;stroke-linecap:round;stroke-linejoin:round;stroke-miterlimit:10;stroke-dasharray:none;stroke-opacity:1"
         d="m 301.5,433.11 -4.5,4.5 v -2.97 h -13.5 v -3.06 H 297 v -2.97 z" />
      <g
         id="g1107">
        <path
           inkscape:connector-curvature="0"
           id="path1109"
           style="fill:none;stroke:#7e649e;stroke-width:0.75;stroke-linecap:round;stroke-linejoin:round;stroke-miterlimit:10;stroke-dasharray:0.75, 1.5;stroke-dashoffset:0;stroke-opacity:1"
           d="M 382.5,606.36 345.89,439.88" />
      </g>
      <path
         inkscape:connector-curvature="0"
         id="path1111"
         style="fill:none;stroke:#000000;stroke-width:0.23999999;stroke-linecap:round;stroke-linejoin:round;stroke-miterlimit:10;stroke-dasharray:none;stroke-opacity:1"
         d="M 346.5,577.11 H 396 l 27,-72" />
      <path
         inkscape:connector-curvature="0"
         id="path1113"
         style="fill:none;stroke:#000000;stroke-width:0.23999999;stroke-linecap:round;stroke-linejoin:round;stroke-miterlimit:10;stroke-dasharray:none;stroke-opacity:1"
         d="M 346.5,541.11 H 396 l 27,-36" />
      <path
         inkscape:connector-curvature="0"
         id="path1115"
         style="fill:none;stroke:#000000;stroke-width:0.23999999;stroke-linecap:round;stroke-linejoin:round;stroke-miterlimit:10;stroke-dasharray:none;stroke-opacity:1"
         d="M 346.5,505.11 H 414" />
      <path
         inkscape:connector-curvature="0"
         id="path1117"
         style="fill:none;stroke:#000000;stroke-width:0.23999999;stroke-linecap:round;stroke-linejoin:round;stroke-miterlimit:10;stroke-dasharray:none;stroke-opacity:1"
         d="M 346.5,469.11 H 396 l 27,36" />
      <path
         inkscape:connector-curvature="0"
         id="path1119"
         style="fill:none;stroke:#000000;stroke-width:0.23999999;stroke-linecap:round;stroke-linejoin:round;stroke-miterlimit:10;stroke-dasharray:none;stroke-opacity:1"
         d="M 346.5,433.11 H 396 l 27,72" />
      <text
         id="text1123"
         style="font-variant:normal;font-weight:normal;font-size:7.99991989px;font-family:CALIBRI;-inkscape-font-specification:CALIBRI;writing-mode:lr-tb;fill:#000000;fill-opacity:1;fill-rule:nonzero;stroke:none"
         transform="matrix(1,0,0,-1,387.41,568.96)">
        <tspan
           id="tspan1121"
           y="0"
           x="0">P</tspan>
      </text>
      <text
         id="text1127"
         style="font-variant:normal;font-weight:normal;font-size:7.99991989px;font-family:CALIBRI;-inkscape-font-specification:CALIBRI;writing-mode:lr-tb;fill:#000000;fill-opacity:1;fill-rule:nonzero;stroke:none"
         transform="matrix(1,0,0,-1,391.54,568.96)">
        <tspan
           id="tspan1125"
           y="0"
           x="0">1</tspan>
      </text>
      <text
         id="text1131"
         style="font-variant:normal;font-weight:normal;font-size:7.99991989px;font-family:CALIBRI;-inkscape-font-specification:CALIBRI;writing-mode:lr-tb;fill:#000000;fill-opacity:1;fill-rule:nonzero;stroke:none"
         transform="matrix(1,0,0,-1,387.41,532.96)">
        <tspan
           id="tspan1129"
           y="0"
           x="0">P</tspan>
      </text>
      <text
         id="text1135"
         style="font-variant:normal;font-weight:normal;font-size:7.99991989px;font-family:CALIBRI;-inkscape-font-specification:CALIBRI;writing-mode:lr-tb;fill:#000000;fill-opacity:1;fill-rule:nonzero;stroke:none"
         transform="matrix(1,0,0,-1,391.54,532.96)">
        <tspan
           id="tspan1133"
           y="0"
           x="0">2</tspan>
      </text>
      <text
         id="text1139"
         style="font-variant:normal;font-weight:normal;font-size:7.99991989px;font-family:CALIBRI;-inkscape-font-specification:CALIBRI;writing-mode:lr-tb;fill:#000000;fill-opacity:1;fill-rule:nonzero;stroke:none"
         transform="matrix(1,0,0,-1,387.41,507.21)">
        <tspan
           id="tspan1137"
           y="0"
           x="0">P</tspan>
      </text>
      <text
         id="text1143"
         style="font-variant:normal;font-weight:normal;font-size:7.99991989px;font-family:CALIBRI;-inkscape-font-specification:CALIBRI;writing-mode:lr-tb;fill:#000000;fill-opacity:1;fill-rule:nonzero;stroke:none"
         transform="matrix(1,0,0,-1,391.54,507.21)">
        <tspan
           id="tspan1141"
           y="0"
           x="0">3</tspan>
      </text>
      <text
         id="text1147"
         style="font-variant:normal;font-weight:normal;font-size:7.99991989px;font-family:CALIBRI;-inkscape-font-specification:CALIBRI;writing-mode:lr-tb;fill:#000000;fill-opacity:1;fill-rule:nonzero;stroke:none"
         transform="matrix(1,0,0,-1,387.41,472.46)">
        <tspan
           id="tspan1145"
           y="0"
           x="0">P</tspan>
      </text>
      <text
         id="text1151"
         style="font-variant:normal;font-weight:normal;font-size:7.99991989px;font-family:CALIBRI;-inkscape-font-specification:CALIBRI;writing-mode:lr-tb;fill:#000000;fill-opacity:1;fill-rule:nonzero;stroke:none"
         transform="matrix(1,0,0,-1,391.54,472.46)">
        <tspan
           id="tspan1149"
           y="0"
           x="0">4</tspan>
      </text>
      <text
         id="text1155"
         style="font-variant:normal;font-weight:normal;font-size:7.99991989px;font-family:CALIBRI;-inkscape-font-specification:CALIBRI;writing-mode:lr-tb;fill:#000000;fill-opacity:1;fill-rule:nonzero;stroke:none"
         transform="matrix(1,0,0,-1,387.41,436.21)">
        <tspan
           id="tspan1153"
           y="0"
           x="0">P</tspan>
      </text>
      <text
         id="text1159"
         style="font-variant:normal;font-weight:normal;font-size:7.99991989px;font-family:CALIBRI;-inkscape-font-specification:CALIBRI;writing-mode:lr-tb;fill:#000000;fill-opacity:1;fill-rule:nonzero;stroke:none"
         transform="matrix(1,0,0,-1,391.54,436.21)">
        <tspan
           id="tspan1157"
           y="0"
           x="0">5</tspan>
      </text>
      <path
         inkscape:connector-curvature="0"
         id="path1161"
         style="fill:#ffffff;fill-opacity:1;fill-rule:evenodd;stroke:none"
         d="m 414,505.11 c 0,4.97 4.03,9 9,9 4.97,0 9,-4.03 9,-9 0,0 0,0 0,0 0,-4.97 -4.03,-9 -9,-9 -4.97,0 -9,4.03 -9,9 z" />
      <path
         inkscape:connector-curvature="0"
         id="path1163"
         style="fill:none;stroke:#000000;stroke-width:0.23999999;stroke-linecap:round;stroke-linejoin:round;stroke-miterlimit:10;stroke-dasharray:none;stroke-opacity:1"
         d="m 414,505.11 c 0,4.97 4.03,9 9,9 4.97,0 9,-4.03 9,-9 0,0 0,0 0,0 0,-4.97 -4.03,-9 -9,-9 -4.97,0 -9,4.03 -9,9 z" />
      <text
         id="text1167"
         style="font-variant:normal;font-weight:normal;font-size:7.99991989px;font-family:CALIBRI;-inkscape-font-specification:CALIBRI;writing-mode:lr-tb;fill:#000000;fill-opacity:1;fill-rule:nonzero;stroke:none"
         transform="matrix(1,0,0,-1,417.39,502.71)">
        <tspan
           id="tspan1165"
           sodipodi:role="line"
           y="0"
           x="0 3.832056 7.4454479">avg</tspan>
      </text>
      <path
         inkscape:connector-curvature="0"
         id="path1169"
         style="fill:none;stroke:#000000;stroke-width:0.23999999;stroke-linecap:round;stroke-linejoin:round;stroke-miterlimit:10;stroke-dasharray:none;stroke-opacity:1"
         d="m 432,505.11 h 31.82" />
      <path
         inkscape:connector-curvature="0"
         id="path1171"
         style="fill:#000000;fill-opacity:1;fill-rule:evenodd;stroke:none"
         d="m 468,505.11 -5.52,-2.76 c 0.87,1.74 0.87,3.78 0,5.52 z" />
      <text
         id="text1175"
         style="font-variant:normal;font-weight:normal;font-size:7.99991989px;font-family:CALIBRI;-inkscape-font-specification:CALIBRI;writing-mode:lr-tb;fill:#000000;fill-opacity:1;fill-rule:nonzero;stroke:none"
         transform="matrix(1,0,0,-1,438.37,495.96)">
        <tspan
           id="tspan1173"
           sodipodi:role="line"
           y="0"
           x="0 5.296752 9.4998236 12.179376 16.382448 20.58552">Output</tspan>
      </text>
      <path
         inkscape:connector-curvature="0"
         id="path1177"
         style="fill:#c4d6a0;fill-opacity:1;fill-rule:evenodd;stroke:none"
         d="m 229.55,592.86 4.5,4.05 h -2.97 v 4.95 h -3.06 v -4.95 h -2.97 z" />
      <path
         inkscape:connector-curvature="0"
         id="path1179"
         style="fill:none;stroke:#000000;stroke-width:0.23999999;stroke-linecap:round;stroke-linejoin:round;stroke-miterlimit:10;stroke-dasharray:none;stroke-opacity:1"
         d="m 229.55,592.86 4.5,4.05 h -2.97 v 4.95 h -3.06 v -4.95 h -2.97 z" />
      <g
         id="g1181">
        <path
           inkscape:connector-curvature="0"
           id="path1183"
           style="fill:none;stroke:#7e649e;stroke-width:0.75;stroke-linecap:round;stroke-linejoin:round;stroke-miterlimit:10;stroke-dasharray:0.75, 1.5;stroke-dashoffset:0;stroke-opacity:1"
           d="M 382.5,606.36 345.8,584.03" />
      </g>
      <g
         id="g1185">
        <path
           inkscape:connector-curvature="0"
           id="path1187"
           style="fill:none;stroke:#7e649e;stroke-width:0.75;stroke-linecap:round;stroke-linejoin:round;stroke-miterlimit:10;stroke-dasharray:0.75, 1.5;stroke-dashoffset:0;stroke-opacity:1"
           d="M 382.5,606.36 345.93,547.8" />
      </g>
      <g
         id="g1189">
        <path
           inkscape:connector-curvature="0"
           id="path1191"
           style="fill:none;stroke:#7e649e;stroke-width:0.75;stroke-linecap:round;stroke-linejoin:round;stroke-miterlimit:10;stroke-dasharray:0.75, 1.5;stroke-dashoffset:0;stroke-opacity:1"
           d="M 382.5,606.36 346.27,511.03" />
      </g>
      <g
         id="g1193">
        <path
           inkscape:connector-curvature="0"
           id="path1195"
           style="fill:none;stroke:#7e649e;stroke-width:0.75;stroke-linecap:round;stroke-linejoin:round;stroke-miterlimit:10;stroke-dasharray:0.75, 1.5;stroke-dashoffset:0;stroke-opacity:1"
           d="M 382.5,606.36 345.42,476.54" />
      </g>
    </g>
  </g>
</svg>
